PathFileType	4	(X/Y/Z)	RBDS013\RBDS013runT25.trc
DataRate	CameraRate	NumFrames	NumMarkers	Units	OrigDataRate	OrigDataStartFrame	OrigNumFrames
150.000000	150.000000	5	33	mm	150.000000	2812	4500
Frame#	Time	L.ASIS			L.Heel.Bottom			L.Heel.Lateral			L.Heel.Top			L.Iliac.Crest			L.MT1			L.MT5			L.PSIS			L.Shank.Bottom.Lateral			L.Shank.Bottom.Medial			L.Shank.Top.Lateral			L.Shank.Top.Medial			L.Thigh.Bottom.Lateral			L.Thigh.Bottom.Medial			L.Thigh.Top.Lateral			L.Thigh.Top.Medial			R.ASIS			R.ASY			R.Heel.Bottom			R.Heel.Lateral			R.Heel.Top			R.Iliac.Crest			R.MT1			R.MT5			R.PSIS			R.Shank.Bottom.Lateral			R.Shank.Bottom.Medial			R.Shank.Top.Lateral			R.Shank.Top.Medial			R.Thigh.Bottom.Lateral			R.Thigh.Bottom.Medial			R.Thigh.Top.Lateral			R.Thigh.Top.Medial			
		X1	Y1	Z1	X2	Y2	Z2	X3	Y3	Z3	X4	Y4	Z4	X5	Y5	Z5	X6	Y6	Z6	X7	Y7	Z7	X8	Y8	Z8	X9	Y9	Z9	X10	Y10	Z10	X11	Y11	Z11	X12	Y12	Z12	X13	Y13	Z13	X14	Y14	Z14	X15	Y15	Z15	X16	Y16	Z16	X17	Y17	Z17	X18	Y18	Z18	X19	Y19	Z19	X20	Y20	Z20	X21	Y21	Z21	X22	Y22	Z22	X23	Y23	Z23	X24	Y24	Z24	X25	Y25	Z25	X26	Y26	Z26	X27	Y27	Z27	X28	Y28	Z28	X29	Y29	Z29	X30	Y30	Z30	X31	Y31	Z31	X32	Y32	Z32	X33	Y33	Z33	

2813	18.74666666666667	2240.690482713959	863.7178290567574	895.2276377134939	2088.520503008147	32.25123202802627	1016.235797810451	2111.259779989927	56.00858088681483	974.0761138414468	2100.041247207917	78.78823580445794	1016.885952924079	2183.91708834533	923.9415178583705	865.1445509744367	2302.514662410189	46.63820495172834	1039.616502524764	2264.057205707926	36.31981140679623	931.5186580011018	2086.229625192758	903.6668038528621	976.9542763070372	2192.518495044092	149.3126229622835	949.0102119796702	2151.066608583596	169.9168227072166	980.0684947772481	2212.097295977753	224.8459060364692	927.5285642469349	2173.376289624717	245.2821781818301	959.1830075723052	2303.492534806204	535.9451537666728	873.5798584328401	2239.450661139459	513.3261287380354	900.6630320506167	2256.095681229676	632.3615670476433	848.8547226720009	2195.018272008323	611.1707616736978	873.2483866991641	2261.69155997101	854.1051934081955	1128.900125829607	1792.419758821675	370.4139806936502	1087.082917898799	1774.249773700474	561.3212018584593	1069.102049196182	1786.372811741062	534.4562336058849	1111.295111058438	1821.48255134759	541.8345680314725	1072.845781265204	2224.733151285475	913.4274632516607	1165.52273606866	1753.702972558114	353.8081295157178	1038.218829601352	1741.345091090737	384.9035572423412	1142.950454735741	2092.683709452666	900.1723454314854	1075.181859149658	1883.339325353367	478.271890347579	1133.047061800324	1893.051332940008	513.8885194290577	1097.261937574292	1966.007165551652	472.5553534854922	1148.232722872085	1972.65218162296	511.460985371203	1111.826750971501	2193.39669385183	533.5198798082654	1182.272781854213	2134.789693187995	525.7967604328071	1138.796854996258	2172.494732403752	641.2216217615448	1186.621863333529	2117.516775383202	634.8088097976594	1144.869045965922	
2814	18.75333333333333	2238.815176027318	860.5351442538577	894.4294681786611	2072.088157578351	32.53554050651648	1016.258182470263	2094.844581918754	56.27909268842106	974.0795935802973	2083.620755020077	79.02769598873363	1016.87705676261	2181.057290652685	919.3187410769583	864.9871335541659	2285.858527829981	47.22702631948957	1039.455090298643	2247.429457815675	36.64925554146482	931.4041544075496	2084.604689078963	901.0712620513193	977.7735699460694	2178.190670722875	148.9972245446627	948.8917068483687	2137.392156181789	170.7788885517144	980.0116003628802	2199.962384771064	223.8974561603968	927.3711975559262	2161.891941020514	245.3995708146522	959.1021417756546	2298.117831639592	531.9918283940357	873.2549963486657	2233.88463165387	510.2671648716186	900.5341426463084	2252.014443081032	629.057388425342	848.723438645332	2190.782312884269	608.7387869813697	873.3849410059755	2260.097874809227	850.7817594479551	1129.1021199406	1805.306812264537	369.5203134086092	1086.954810893558	1786.446776035575	560.5751080166252	1071.401786070269	1798.981256072589	533.447372733472	1113.355155500808	1833.7880948343	541.217831060844	1074.628959923469	2221.612744797394	909.8359910238402	1165.99696339251	1766.193528587526	353.3875598477162	1038.29406503432	1754.692659154	383.2568183584341	1143.6092978557	2091.202098400331	897.2839111664707	1075.470691541397	1896.151059983313	476.7680177968872	1134.203442003384	1906.263406235566	512.6036255003296	1098.523831389431	1979.004361923336	470.167250259824	1149.088220118643	1985.887469362755	509.371598662179	1112.97356369249	2201.120535853508	530.8292141416848	1183.044216614084	2142.230155867228	521.088692530996	1140.448843075366	2177.004578728999	637.9072085522567	1187.168892360961	2121.849740114722	629.5646741269361	1146.097543703571	
2815	18.76	2236.968497865121	857.9702848383555	893.7308881028704	2055.588967153632	32.75385638992082	1016.245257100071	2078.351866192211	56.45472144390322	974.0209374474273	2067.134602975982	79.21107587358914	1016.79552720545	2178.16764382213	915.8578106359093	864.8861081985095	2269.154660929843	47.66709411348484	1039.256809669617	2230.751100613096	36.7909973259897	931.2484733000044	2083.037672919044	899.3843498888626	978.3926844207215	2163.324042062928	148.6711584379593	948.6374324063264	2123.260380195822	171.4617699769488	979.9427059235347	2187.008995681359	222.9278506728651	927.1151498493116	2149.652955615006	245.3628972591893	959.0159588584517	2291.829533290633	528.2984878055432	872.9123935143532	2227.283920269132	507.6351976530777	900.2046239764716	2247.37227945481	626.174813417868	848.6331880519076	2185.888782271787	606.8948545503398	873.4349640064706	2258.394100065914	848.3199918049052	1129.437633461473	1818.694867025194	367.3474168033317	1086.728847951168	1798.011744240047	558.3559103368565	1073.645281232233	1811.103105944705	531.0784575814909	1115.350575250744	1845.579984844921	539.4411891579553	1076.381927650211	2218.102861968544	907.3748208952725	1166.487824740036	1779.315278667116	351.4617773406457	1038.25301852723	1768.449397986405	379.98485158763	1144.116445973224	2089.716161154441	895.325419052665	1075.666659560374	1908.882357320636	474.5278612502156	1135.238783595621	1919.130611247514	510.6446551477238	1099.687732935204	1991.94447044693	467.6328542802897	1149.848531777314	1998.799594962146	507.1144972168541	1113.985720263904	2209.092413613333	529.1537869082573	1183.796108864913	2150.0589987852	517.3299363467198	1142.015039329286	2181.697450144442	635.482758004345	1187.690970093937	2126.438178619359	625.1428936852476	1147.32189681341	
2816	18.76666666666667	2235.181806779561	856.0567375248926	893.1663753203719	2038.998612757394	32.97165001838322	1016.206605171674	2061.768819188379	56.60002292579576	973.9155928306715	2050.58431523399	79.40261028225578	1016.662839581627	2175.40072519397	913.6186655224282	864.8438448267889	2252.405416133134	47.90596655148078	1039.076714016766	2214.007133752564	36.75860210751519	931.0818876606892	2081.559840946448	898.5682823215268	978.8106040640406	2148.020125996894	148.377498551385	948.2952949487506	2108.724196518306	172.0296557763926	979.8624623766098	2173.37362129226	221.99912558802	926.7941393540954	2136.753901572572	245.2555373070529	958.9154400692919	2284.74211362294	524.9553777674773	872.5559185848505	2219.780014903393	505.4869594759199	899.6849332902156	2242.226818243865	623.7641533586893	848.5773253941773	2180.413564182932	605.6551181056982	873.3944605614915	2256.640752975763	846.7349424515795	1129.867829783783	1832.485585962471	363.9240945418939	1086.406527938501	1808.849639980419	554.6648322899091	1075.815161055765	1822.637212199844	527.3416723470016	1117.249172120986	1856.753345203975	536.5028153403704	1078.093564922005	2214.407383009367	905.9958236842051	1166.96925116332	1792.975691851577	348.0584116430702	1038.078284101912	1782.509287361865	375.1257833373606	1144.443892765784	2088.251079591465	894.2593548886496	1075.777403018562	1921.415733828607	471.5867078031935	1136.146964178118	1931.513725570553	508.0437811871095	1100.75373862844	2004.700565013545	465.0109071367157	1150.513296951049	2011.249930348271	504.7486204082221	1114.868477340417	2217.25876174175	528.5482520708505	1184.523839612506	2158.237323634171	514.5951610524559	1143.464782285482	2186.540261785222	633.9993278658834	1188.183993938445	2131.257017137526	621.6130674053509	1148.514555107974	
2817	18.77333333333333	2233.484864585552	854.8236299624649	892.7542892463821	2022.307736560072	33.26970773488406	1016.143872530219	2045.095476787065	56.7875072509644	973.7672844430678	2033.978659837786	79.6796600121059	1016.48212625614	2172.904228078886	912.5904547144116	864.8591219214651	2235.607377294808	47.94757526165783	1038.94848017349	2197.188593980329	36.58958290051587	930.9280520169682	2080.198483800285	898.565017547947	979.0463095677617	2132.384064002873	148.1846422493616	947.8998583961596	2093.842047071053	172.5740534241915	979.7590003709155	2159.196598052122	221.1954101400015	926.4312343079844	2123.2965790607	245.1811630859453	958.7849445371314	2276.96626113827	522.0474910149694	872.1993295963982	2211.510422376517	503.8830088406231	899.0208254032239	2236.634128500925	621.8681393608513	848.5560089771085	2174.438299312656	605.0362398625309	873.2855741036169	2254.901135263568	846.0185805818094	1130.344557522108	1846.60630487174	359.2965421697601	1085.996041495436	1818.908838708185	549.5054371414985	1077.889256321789	1833.524084474206	522.2325997627088	1119.016167707002	1867.239085098966	532.4003491054744	1079.745501842468	2210.744398706702	905.6155254599112	1167.414072022638	1807.106129387525	343.2241070460393	1037.760166566623	1796.801414242785	368.7423083223284	1144.574509080243	2086.836107324932	894.0346005117296	1075.811628687562	1933.652206444875	467.9725153021448	1136.924788405763	1943.299996601758	504.8227943563517	1101.723985511765	2017.155730725006	462.3387386435368	1151.083127626799	2023.115242166518	502.3127564121709	1115.631545838518	2225.554659567208	529.0479481074138	1185.219069185274	2166.701354194464	512.9446192802307	1144.772738141881	2191.488585940399	633.4895640695727	1188.647332755155	2136.265086729523	619.0315105540665	1149.652296998706	
